<svg width="106" height="31" viewBox="0 0 106 31" fill="none" xmlns="http://www.w3.org/2000/svg">
<path d="M5.63469 0.547723C3.47332 1.45244 1.09725 4.00839 0.346812 7.21666C-0.603561 11.2817 3.35139 13.0006 3.67577 12.437C4.05757 11.7747 2.96709 11.5508 2.74263 9.44166C2.45252 6.71757 3.71895 3.6737 5.31279 2.33814C5.60905 2.09 5.59496 2.43536 5.59496 3.07418C5.59496 4.21652 5.53184 14.4714 5.53184 16.6117C5.53184 19.5076 5.41223 20.4221 5.1974 21.3258C4.97973 22.2415 4.6298 22.8603 4.89496 23.0986C5.19121 23.3652 6.45611 22.7311 7.18837 21.709C8.06647 20.4833 8.37384 19.0112 8.42903 17.4126C8.49568 15.4855 8.49284 12.4276 8.49568 10.6834C8.49835 9.08374 8.52263 4.39948 8.46764 1.58348C8.45416 0.892777 6.53859 0.168123 5.63459 0.546883L5.63469 0.547723ZM82.3849 14.1007C82.3152 15.6062 81.982 16.783 81.5684 17.6131C80.7676 19.22 79.1061 19.719 78.4006 17.4089C78.0162 16.1497 77.9982 14.0468 78.2746 12.2896C78.556 10.4995 79.3416 9.1476 80.6425 9.26952C81.9256 9.39004 82.5262 11.0434 82.3849 14.1006V14.1007ZM60.7535 23.4415C60.7361 25.943 60.3424 28.1364 59.4981 28.7734C58.3007 29.6767 56.6912 28.9991 57.0245 27.1737C57.3193 25.5584 58.7139 23.9087 60.7569 21.8931C60.7569 21.8931 60.7612 22.3528 60.7536 23.4415H60.7535ZM60.4265 14.0861C60.3532 15.4574 59.9978 16.8349 59.6099 17.6132C58.8094 19.2202 57.1357 19.7225 56.4422 17.4091C55.9679 15.8285 56.0815 13.7828 56.3162 12.4938C56.6206 10.8214 57.3586 9.26989 58.684 9.26989C59.9727 9.26989 60.6081 10.6837 60.4265 14.0862V14.0861ZM47.8954 14.0651C47.8168 15.5174 47.5335 16.7315 47.0788 17.6132C46.2562 19.2091 44.6288 19.7152 43.9111 17.4091C43.3937 15.7462 43.5698 13.4789 43.785 12.254C44.1045 10.4364 44.9043 9.14778 46.1529 9.26989C47.4355 9.39519 48.0591 11.0436 47.8954 14.0652V14.0651ZM105.323 15.7615C105.009 15.7615 104.866 16.0847 104.748 16.6287C104.337 18.5202 103.905 18.9473 103.349 18.9473C102.727 18.9473 102.168 18.0107 102.025 16.1358C101.912 14.6615 101.93 11.9473 102.074 9.24732C102.104 8.69259 101.951 8.14372 100.463 7.6032C99.8228 7.37071 98.8921 7.02838 98.4288 8.14692C97.1195 11.307 96.6072 13.8159 96.4867 14.8351C96.4805 14.8878 96.4158 14.8986 96.4044 14.7753C96.3277 13.959 96.156 12.4757 96.1346 9.35914C96.1305 8.75107 96.0017 8.23348 95.3305 7.80974C94.895 7.53478 93.5726 7.04847 93.0965 7.62702C92.6839 8.10018 92.2061 9.37352 91.7097 10.8829C91.3062 12.1097 91.0252 12.9396 91.0252 12.9396C91.0252 12.9396 91.0305 9.62948 91.0353 8.3739C91.0375 7.90022 90.7126 7.74238 90.6146 7.71376C90.1736 7.58578 89.3048 7.37196 88.936 7.37196C88.481 7.37196 88.3695 7.62631 88.3695 7.99691C88.3695 8.04543 88.2977 12.355 88.2977 15.3685C88.2977 15.4994 88.2977 15.6422 88.2991 15.7939C88.0474 17.1789 87.2312 19.059 86.3435 19.059C85.4548 19.059 85.0355 18.273 85.0355 14.6805C85.0355 12.5847 85.0984 11.6734 85.1294 10.1576C85.1473 9.28455 85.182 8.6141 85.18 8.46195C85.1735 7.99538 84.3667 7.76022 83.9913 7.67331C83.6141 7.58567 83.2863 7.55172 83.0304 7.5663C82.6682 7.58674 82.4118 7.82439 82.4118 8.15126C82.4118 8.32651 82.4138 8.65978 82.4138 8.65978C81.9473 7.92659 81.1968 7.41628 80.6976 7.2684C79.3528 6.86902 77.9495 7.2229 76.891 8.70404C76.0497 9.88088 75.5426 11.2138 75.343 13.1288C75.1971 14.5288 75.2447 15.9485 75.5041 17.1492C75.1907 18.504 74.609 19.059 73.9719 19.059C73.0471 19.059 72.3767 17.5495 72.4545 14.9389C72.5059 13.2218 72.8495 12.0168 73.2251 10.2735C73.3852 9.53036 73.2551 9.14128 72.9287 8.76838C72.6294 8.4264 71.9917 8.25168 71.0749 8.46658C70.4219 8.61979 69.4882 8.78455 68.6339 8.91111C68.6339 8.91111 68.6855 8.70546 68.7278 8.34287C68.95 6.44136 66.8837 6.59564 66.2244 7.20299C65.8309 7.56559 65.563 7.99324 65.4614 8.76216C65.3002 9.98238 66.2953 10.5579 66.2953 10.5579C65.9688 12.0526 65.1685 14.0051 64.3421 15.4167C63.8996 16.173 63.561 16.7335 63.1239 17.3292C63.1223 17.1074 63.1211 16.8856 63.1203 16.6648C63.1103 13.5224 63.1521 11.0493 63.1706 10.1579C63.1885 9.28486 63.2235 8.63218 63.2216 8.48003C63.2166 8.13876 63.0173 8.0099 62.6029 7.84672C62.2364 7.7024 61.803 7.60251 61.3535 7.56767C60.7861 7.52342 60.4443 7.82434 60.4532 8.18018C60.455 8.24736 60.455 8.65991 60.455 8.65991C59.9884 7.92671 59.2379 7.41642 58.7387 7.26852C57.3938 6.86931 55.9906 7.2232 54.9321 8.70416C54.091 9.881 53.5402 11.5324 53.3841 13.1143C53.2387 14.5887 53.2656 15.8416 53.4638 16.8971C53.2499 17.954 52.6351 19.0592 51.94 19.0592C51.0512 19.0592 50.5456 18.2731 50.5456 14.6806C50.5456 12.5848 50.6085 11.6736 50.6394 10.1579C50.6574 9.28486 50.692 8.61423 50.6901 8.46226C50.6835 7.99568 49.8767 7.76052 49.5013 7.67343C49.1085 7.5826 48.7694 7.54919 48.509 7.56838C48.1654 7.59398 47.9238 7.90166 47.9238 8.13112V8.65991C47.4573 7.92671 46.7068 7.41642 46.2076 7.26852C44.8627 6.86931 43.4673 7.2289 42.401 8.70416C41.7057 9.66611 41.1427 10.7326 40.853 13.0934C40.7693 13.7756 40.7323 14.4144 40.7371 15.0116C40.4599 16.7073 39.2352 18.6617 38.2334 18.6617C37.6472 18.6617 37.0889 17.5247 37.0889 15.1015C37.0889 11.8737 37.2887 7.27795 37.3225 6.83502C37.3225 6.83502 38.5882 6.81351 38.8333 6.81066C39.4647 6.80372 40.0365 6.81866 40.8774 6.77564C41.2992 6.75414 41.7055 5.24047 41.2702 5.05314C41.0729 4.96835 39.6785 4.89406 39.1257 4.88232C38.6609 4.87179 37.3669 4.77603 37.3669 4.77603C37.3669 4.77603 37.483 1.72559 37.51 1.40335C37.533 1.13478 37.1855 0.996497 36.9862 0.91259C36.5017 0.707657 36.0682 0.609536 35.5543 0.503603C34.8444 0.357149 34.5223 0.500403 34.4594 1.09958C34.3647 2.00892 34.3156 4.6724 34.3156 4.6724C33.7946 4.6724 32.0151 4.57056 31.4939 4.57056C31.0098 4.57056 30.4872 6.65283 31.1566 6.67842C31.9267 6.70828 33.2689 6.73406 34.1587 6.7609C34.1587 6.7609 34.119 11.4324 34.119 12.8746C34.119 13.028 34.1204 13.1758 34.1206 13.3191C33.6309 15.8715 31.9061 17.2503 31.9061 17.2503C32.2765 15.5617 31.5199 14.2937 30.157 13.2203C29.6548 12.8248 28.6635 12.0759 27.5544 11.2554C27.5544 11.2554 28.1968 10.6222 28.7665 9.34852C29.1701 8.4463 29.1875 7.41378 28.1968 7.1861C26.5598 6.80963 25.21 8.01188 24.8074 9.29538C24.4955 10.2897 24.6618 11.0275 25.2729 11.7939C25.3175 11.8499 25.3659 11.9071 25.4158 11.9647C25.0463 12.677 24.5386 13.6359 24.1087 14.3796C22.9153 16.4442 22.0138 18.0773 21.3325 18.0773C20.7879 18.0773 20.7952 16.4193 20.7952 14.8669C20.7952 13.5286 20.894 11.5166 20.9729 9.43348C20.9991 8.74455 20.6546 8.35208 20.0771 7.9966C19.7262 7.78064 18.9774 7.35602 18.5437 7.35602C17.8946 7.35602 16.0217 7.44435 14.2521 12.5632C14.0291 13.2084 13.591 14.384 13.591 14.384L13.6287 8.22838C13.6287 8.08406 13.5518 7.94452 13.3758 7.84907C13.0776 7.68715 12.2811 7.35602 11.5729 7.35602C11.2355 7.35602 11.0671 7.51296 11.0671 7.82579L11.0054 17.4563C11.0054 18.188 11.0244 19.0417 11.0968 19.415C11.1689 19.7889 11.2856 20.093 11.4303 20.2739C11.5747 20.4545 11.7417 20.5922 12.0172 20.6491C12.2735 20.7019 13.6772 20.8821 13.7502 20.3457C13.8376 19.7028 13.8409 19.0075 14.578 16.4142C15.7255 12.3767 17.2216 10.4068 17.9249 9.7072C18.0479 9.58492 18.1883 9.57763 18.1815 9.77776C18.1515 10.6629 18.0459 12.8748 17.9748 14.7539C17.7843 19.7826 18.6991 20.7147 20.0065 20.7147C21.0066 20.7147 22.4165 19.7209 23.9278 17.2053C24.8701 15.6376 25.7849 14.1005 26.4422 12.9926C26.9002 13.4166 27.4143 13.873 27.928 14.3606C29.1217 15.4935 29.5136 16.5701 29.2536 17.5914C29.0547 18.3722 28.3057 19.1768 26.9726 18.3947C26.584 18.1666 26.4182 17.9903 26.0275 17.733C25.8176 17.5949 25.4971 17.5536 25.305 17.6983C24.8059 18.0746 24.5204 18.5533 24.3574 19.1459C24.1989 19.7225 24.7764 20.0273 25.375 20.2939C25.8905 20.5234 26.9984 20.7313 27.7049 20.755C30.4578 20.8471 32.663 19.4258 34.1982 15.7597C34.473 18.9259 35.6426 20.7175 37.6745 20.7175C39.033 20.7175 40.3951 18.9615 40.9907 17.2341C41.1617 17.9383 41.4148 18.5506 41.7417 19.0684C43.3074 21.5492 46.3449 21.0152 47.8706 18.9087C48.3423 18.2577 48.4142 18.0238 48.4142 18.0238C48.6367 20.013 50.2385 20.7079 51.1557 20.7079C52.1829 20.7079 53.2434 20.2223 53.9868 18.5489C54.0739 18.7305 54.169 18.9039 54.2728 19.0684C55.8385 21.5491 58.876 21.0152 60.4017 18.9086C60.4737 18.8098 60.5361 18.7202 60.5907 18.6397L60.6354 19.9462C60.6354 19.9462 59.765 20.7447 59.2307 21.2345C56.8792 23.392 55.0911 25.0288 54.9596 26.935C54.7907 29.3654 56.7619 30.2687 58.2532 30.3871C59.8368 30.5128 61.193 29.6379 62.0266 28.4136C62.7598 27.336 63.2397 25.0166 63.2046 22.7258C63.1905 21.8085 63.1674 20.6421 63.1493 19.3919C63.9758 18.4321 64.907 17.219 65.7644 15.799C66.6988 14.2515 67.7002 12.1734 68.213 10.5561C68.213 10.5561 69.0831 10.5635 70.0116 10.5027C70.3086 10.4834 70.3939 10.544 70.339 10.7617C70.2727 11.0248 69.1659 15.2938 70.176 18.1377C70.8674 20.0845 72.4261 20.7109 73.3502 20.7109C74.4319 20.7109 75.4667 19.894 76.0213 18.6809C76.0881 18.8161 76.158 18.947 76.2342 19.0678C77.8 21.5486 80.8268 21.0114 82.3632 18.9081C82.71 18.4335 82.9067 18.0232 82.9067 18.0232C83.2364 20.0819 84.8374 20.7178 85.7543 20.7178C86.7095 20.7178 87.616 20.3262 88.3515 18.586C88.3823 19.3522 88.4306 19.9788 88.5071 20.1763C88.5536 20.2971 88.8251 20.4488 89.0225 20.522C89.8963 20.846 90.7875 20.6928 91.1172 20.6261C91.3456 20.5799 91.5237 20.3967 91.5481 19.9235C91.6121 18.6811 91.5728 16.5936 91.9494 15.0423C92.5817 12.4387 93.1714 11.4288 93.4512 10.9288C93.6078 10.6487 93.7844 10.6024 93.7908 10.8989C93.804 11.4988 93.8339 13.2604 94.0788 15.6273C94.2587 17.368 94.499 18.3969 94.6836 18.7225C95.2107 19.6537 95.8616 19.6978 96.3916 19.6978C96.7288 19.6978 97.4339 19.6046 97.3708 19.012C97.34 18.7232 97.3939 16.9381 98.0172 14.3731C98.4243 12.698 99.1029 11.1845 99.3477 10.6312C99.438 10.4272 99.4799 10.588 99.4785 10.6194C99.4269 11.7729 99.3112 15.5461 99.7812 17.6097C100.418 20.4052 102.261 20.718 102.903 20.718C104.274 20.718 105.395 19.6752 105.773 16.9312C105.864 16.2709 105.729 15.761 105.326 15.761" fill="#262626"/>
</svg>
